<svg width="24" height="24" viewBox="0 0 24 24" fill="currentColor" xmlns="http://www.w3.org/2000/svg">
<path fill-rule="evenodd" clip-rule="evenodd" d="M12.1084 3.51453L12.44 3L12.7715 3.51457L16.6206 9.4892L16.9228 9.95817L16.4417 10.2406L12.4401 12.5901L8.43718 10.2406L7.95605 9.95817L8.25825 9.48923L12.1084 3.51453ZM9.28673 9.68677L12.439 4.78668L15.5983 9.63909L12.4437 11.4679L9.28673 9.68677Z" fill="currentColor"/>
<path d="M12.4372 14.1111L7.21036 11.0977C7.21036 11.0977 6.30157 12.0054 6.03898 14.1076C5.86146 15.5286 6.30442 17.141 7.08015 18.177C9.19347 20.9993 11.6744 20.9993 12.3645 20.9993C13.0545 20.9993 15.5821 20.8012 17.3155 18.643C18.5278 17.1336 18.8622 15.3805 18.6642 13.7318C18.4865 12.2522 17.5793 11.1014 17.5793 11.1014L12.4372 14.1111Z" fill="currentColor" stroke="currentColor" stroke-width="0.0348371"/>
</svg>
