<svg width="64" height="64" viewBox="0 0 64 64" fill="none" xmlns="http://www.w3.org/2000/svg">
<path d="M0 16C0 7.16344 7.16344 0 16 0H48C56.8366 0 64 7.16344 64 16V48C64 56.8366 56.8366 64 48 64H16C7.16344 64 0 56.8366 0 48V16Z" fill="url(#paint0_linear_1802_5758)"/>
<path fill-rule="evenodd" clip-rule="evenodd" d="M32.4468 12.141C32.1788 11.953 31.8218 11.953 31.5538 12.141L10.3325 27.0258C9.71045 27.4622 10.0192 28.4399 10.779 28.4399C13.7804 28.4399 16.2136 30.8731 16.2136 33.8745V48.4902C16.2136 49.4205 16.5832 50.3128 17.2411 50.9706C17.899 51.6285 18.7913 51.998 19.7217 51.998C21.6592 51.998 23.2299 50.4274 23.2299 48.4899V37.9665C23.2299 35.6406 24.1539 33.41 25.7987 31.7654C27.4434 30.1208 29.6742 29.1968 32.0003 29.1968C34.3263 29.1968 36.5571 30.1208 38.2018 31.7654C39.8466 33.41 40.7706 35.6406 40.7706 37.9665V48.4899C40.7706 50.4274 42.3413 51.998 44.2788 51.998C45.2092 51.998 46.1015 51.6285 46.7594 50.9706C47.4173 50.3128 47.7869 49.4205 47.7869 48.4902V33.8746C47.7869 30.8731 50.2201 28.4399 53.2216 28.4399C53.9815 28.4399 54.2902 27.4622 53.6681 27.0258L32.4468 12.141Z" fill="white"/>
<path d="M32.0365 51.9796L27.3657 47.308C25.8723 45.8144 25.0333 43.7886 25.0333 41.6762C25.0333 39.5639 25.8723 37.5381 27.3657 36.0444L28.6211 34.7888L33.2946 39.4631C34.7868 40.957 35.6248 42.9824 35.6243 45.0942C35.6238 47.2058 34.7849 49.2308 33.292 50.724L32.0365 51.9796Z" fill="white"/>
<path opacity="0.5" d="M30.676 39.4616L35.3522 34.7847L36.6076 36.0403C37.3478 36.78 37.935 37.6583 38.3356 38.6251C38.7363 39.5919 38.9425 40.6281 38.9425 41.6747C38.9425 42.7213 38.7363 43.7576 38.3356 44.7244C37.935 45.6911 37.3478 46.5694 36.6076 47.3091L31.934 51.9834L30.676 50.7252C29.1826 49.2315 28.3436 47.2057 28.3436 45.0934C28.3436 42.981 29.1826 40.9552 30.676 39.4616Z" fill="white"/>
<defs>
<linearGradient id="paint0_linear_1802_5758" x1="0.094284" y1="-8.9407e-08" x2="64.0943" y2="64" gradientUnits="userSpaceOnUse">
<stop stop-color="#F9575E"/>
<stop offset="1" stop-color="#FA797E"/>
</linearGradient>
</defs>
</svg>
